[center][img]http://img6.imageshack.us/img6/7281/suckerpunchsweetpea.jpg[/img]



[img]http://leetleech.org/images/48874973695367351744.png[/img]


Format                           : AVI
Format/Info                      : Audio Video Interleave
File size                        : 1.24 GiB
Duration                         : 1h 50mn
Overall bit rate                 : 1 612 Kbps
Writing library                  : VirtualDub build 32839/release

Video
ID                               : 0
Format                           : MPEG-4 Visual
Format profile                   : Advanced Simple@L5
Format settings, BVOP            : Yes
Format settings, QPel            : No
Format settings, GMC             : No warppoints
Format settings, Matrix          : Custom
Codec ID                         : XVID
Codec ID/Hint                    : XviD
Duration                         : 1h 50mn
Bit rate                         : 1 474 Kbps
Width                            : 720 pixels
Height                           : 304 pixels
Display aspect ratio             : 2.35:1
Frame rate                       : 23.976 fps
Color space                      : YUV
Chroma subsampling               : 4:2:0
Bit depth                        : 8 bits
Scan type                        : Progressive
Bits/(Pixel*Frame)               : 0.281
Stream size                      : 1.14 GiB (91%)
Writing library                  : XviD 1.2.1 (UTC 2008-12-04)

Audio
ID                               : 1
Format                           : MPEG Audio
Format version                   : Version 1
Format profile                   : Layer 3
Codec ID                         : 55
Codec ID/Hint                    : MP3
Duration                         : 1h 50mn
Bit rate mode                    : Constant
Bit rate                         : 128 Kbps
Channel(s)                       : 2 channels
Sampling rate                    : 44.1 KHz
Stream size                      : 101 MiB (8%)
Alignment                        : Split accross interleaves
Interleave, duration             : 42 ms (1.00 video frame)
Interleave, preload duration     : 500 ms




[url]http://www.imdb.com/title/tt0978764/[/url]




[IMG]http://leetleech.org/images/89524873606771859129.png[/IMG]



Users: 6.8/10 (8,829 votes) 267 reviews | Critics: 111 reviews Metascore: 35/100 (based on 28 reviews from Metacritic.com)

A young girl is institutionalized by her abusive stepfather. Retreating to an alternative reality as a coping strategy, she envisions a plan which will help her escape from the mental facility.
Director:
Zack Snyder
Writers:
Zack Snyder (screenplay), Steve Shibuya (screenplay), and 1 more credit »
Stars:
Emily Browning, Vanessa Hudgens and Abbie Cornish



[img]http://leetleech.org/images/95521316153253938506.png[/img]




[img]http://img687.imageshack.us/img687/9779/vlcsnap2011033012h51m01.png[/img]
[img]http://img862.imageshack.us/img862/300/vlcsnap2011033012h49m13.png[/img]
[img]http://img692.imageshack.us/img692/5027/vlcsnap2011033012h53m58.png[/img]

SOURCES:



VIDEO: Imagine  .............. Thanks 


AUDIO: Imagine  .................Thanks 


Download the sample is my advice .I wasnt sure whether to release or not ,not real happy with the video its dark and a few other flaws but i honestly did what i could with it ..So download that sample and dont moan about it later .Im already working on another release of this but not had time today ....

Enjoy !


Greetz to Imagine ,Flawl3ss,DiLLoN,BDK,NOiR,TOXiCiNK,THC,Ez,Rx,





[img]http://img411.imageshack.us/img411/6898/sig1n.jpg[/img]




